<svg width="339" height="350" viewBox="0 0 339 350" fill="none" xmlns="http://www.w3.org/2000/svg">
<path d="M105.706 65.1621L84.7053 31.4358L79.4775 34.9052L74.2518 38.3854L95.2631 72.0929C95.2631 72.0929 99.8663 80.9518 97.688 88.5926L108.459 81.4338L119.251 74.2693C111.615 73.1448 105.706 65.1621 105.706 65.1621Z" fill="#BE1E2D"/>
<path d="M94.4112 24.9963C96.5028 28.3388 91.514 35.501 83.2628 40.9823C75.0102 46.4543 66.6306 48.1842 64.5405 44.8253C62.4507 41.4867 67.4485 34.3184 75.6957 28.8469C83.9469 23.3655 92.3319 21.6393 94.4112 24.9963Z" fill="#BE1E2D"/>
<path d="M148.351 62.8958L139.309 23.9222L133.271 25.4205L127.227 26.9056L136.271 65.9015C136.271 65.9015 137.775 75.8292 133.282 82.2912L145.738 79.2124L158.203 76.128C151.362 72.4646 148.351 62.8958 148.351 62.8958Z" fill="#BE1E2D"/>
<path d="M150.537 21.1498C151.441 25.0225 144.441 30.0776 134.892 32.4427C125.354 34.7913 116.888 33.5657 115.996 29.6931C115.091 25.8111 122.099 20.7593 131.64 18.3943C141.182 16.0404 149.645 17.2715 150.537 21.1498Z" fill="#BE1E2D"/>
<path d="M188.444 51.9613L195.847 12.6104L189.739 11.3964L183.65 10.1746L176.256 49.5386C176.256 49.5386 173.647 59.2119 166.972 63.176L179.542 65.6964L192.114 68.2147C187.37 61.9638 188.444 51.9613 188.444 51.9613Z" fill="#BE1E2D"/>
<path d="M207.18 14.8934C206.445 18.8015 198.045 20.4174 188.408 18.4804C178.784 16.5485 171.57 11.809 172.301 7.90455C173.035 3.99261 181.447 2.38432 191.073 4.31753C200.707 6.2363 207.912 10.9759 207.18 14.8934Z" fill="#BE1E2D"/>
<path d="M228.168 67.7716L245.522 31.9087L239.967 29.0482L234.412 26.1919L217.054 62.0383C217.054 62.0383 212.027 70.6467 204.563 72.6141L216.021 78.523L227.48 84.4432C224.534 77.0956 228.168 67.7716 228.168 67.7716Z" fill="#BE1E2D"/>
<path d="M255.852 37.2365C254.122 40.8028 245.625 40.0277 236.842 35.4972C228.064 30.9801 222.352 24.4174 224.073 20.851C225.802 17.281 234.318 18.0655 243.095 22.5866C251.866 27.1168 257.58 33.6702 255.852 37.2365Z" fill="#BE1E2D"/>
<path d="M250.65 106.744L277.719 78.0112L273.262 73.5387L268.817 69.074L241.744 97.7911C241.744 97.7911 234.419 104.421 226.724 103.952L235.899 113.178L245.086 122.413C244.431 114.476 250.65 106.744 250.65 106.744Z" fill="#BE1E2D"/>
<path d="M285.992 86.3263C283.305 89.1732 275.416 85.7694 268.391 78.708C261.365 71.6461 257.848 63.602 260.535 60.7457C263.228 57.8894 271.113 61.3021 278.146 68.364C285.169 75.4218 288.686 83.47 285.992 86.3263Z" fill="#BE1E2D"/>
<path d="M279.657 135.409L315.911 121.055L313.68 115.059L311.46 109.077L275.199 123.439C275.199 123.439 265.869 126.277 259.071 122.522L263.665 134.874L268.249 147.232C270.87 139.754 279.657 135.409 279.657 135.409Z" fill="#BE1E2D"/>
<path d="M320.039 132.184C316.442 133.608 310.669 127.097 307.15 117.655C303.634 108.197 303.716 99.3642 307.318 97.9499C310.924 96.5173 316.693 103.028 320.211 112.486C323.717 121.935 323.647 130.764 320.039 132.184Z" fill="#BE1E2D"/>
<path d="M287.306 178.526L326.089 176.76L325.822 170.356L325.543 163.947L286.759 165.719C286.759 165.719 277.023 165.361 271.728 159.588L272.296 172.805L272.868 186.019C277.643 179.789 287.306 178.526 287.306 178.526Z" fill="#BE1E2D"/>
<path d="M326.603 188.674C322.747 188.857 319.268 180.792 318.839 170.666C318.401 160.56 321.173 152.205 325.031 152.035C328.891 151.854 332.372 159.925 332.795 170.031C333.235 180.151 330.459 188.502 326.603 188.674Z" fill="#BE1E2D"/>
<path d="M265.417 215.463L300.978 231.542L303.462 225.667L305.965 219.788L270.391 203.718C270.391 203.718 261.805 198.964 259.529 191.368L254.386 203.487L249.25 215.6C256.217 212.182 265.417 215.463 265.417 215.463Z" fill="#BE1E2D"/>
<path d="M296.346 242.464C292.817 240.861 293.134 232.051 297.062 222.775C301.009 213.496 307.059 207.268 310.597 208.865C314.129 210.457 313.805 219.289 309.864 228.563C305.938 237.829 299.885 244.063 296.346 242.464Z" fill="#BE1E2D"/>
<path d="M255.007 257.57L284.959 283.069L288.907 278.122L292.859 273.177L262.912 247.674C262.912 247.674 255.915 240.673 255.722 232.729L247.576 242.929L239.426 253.137C247.022 251.814 255.007 257.57 255.007 257.57Z" fill="#BE1E2D"/>
<path d="M277.616 292.264C274.638 289.736 277.272 281.346 283.519 273.535C289.765 265.709 297.227 261.442 300.205 263.966C303.191 266.5 300.546 274.897 294.298 282.717C288.066 290.53 280.589 294.801 277.616 292.264Z" fill="#BE1E2D"/>
<path d="M223.561 284.531L243.474 318.941L248.811 315.659L254.144 312.365L234.229 277.948C234.229 277.948 229.913 268.939 232.331 261.386L221.335 268.159L210.333 274.949C217.92 276.347 223.561 284.531 223.561 284.531Z" fill="#BE1E2D"/>
<path d="M233.563 325.057C231.591 321.638 236.798 314.665 245.223 309.46C253.65 304.265 262.077 302.828 264.055 306.245C266.043 309.671 260.814 316.654 252.39 321.85C243.977 327.038 235.543 328.487 233.563 325.057Z" fill="#BE1E2D"/>
<path d="M181.961 287.432L188.099 327.015L194.231 325.999L200.369 324.977L194.228 285.4C194.228 285.4 193.459 275.384 198.415 269.285L185.759 271.375L173.113 273.473C179.654 277.662 181.961 287.432 181.961 287.432Z" fill="#BE1E2D"/>
<path d="M176.698 328.889C176.083 324.96 183.44 320.474 193.129 318.866C202.813 317.271 211.166 319.165 211.772 323.098C212.386 327.028 205.025 331.523 195.335 333.132C185.654 334.725 177.305 332.832 176.698 328.889Z" fill="#BE1E2D"/>
<path d="M142.123 297.666L134.977 337.079L141.079 338.243L147.178 339.431L154.333 300.028C154.333 300.028 156.881 290.328 163.537 286.323L150.942 283.879L138.35 281.439C143.145 287.674 142.123 297.666 142.123 297.666Z" fill="#BE1E2D"/>
<path d="M123.619 334.874C124.33 330.962 132.721 329.298 142.362 331.155C152.009 333.025 159.249 337.714 158.531 341.63C157.825 345.542 149.435 347.212 139.78 345.336C130.148 343.474 122.912 338.795 123.619 334.874Z" fill="#BE1E2D"/>
<path d="M109.692 270.36L89.5998 304.662L94.9229 307.979L100.245 311.296L120.321 276.991C120.321 276.991 126.004 268.822 133.602 267.481L122.637 260.645L111.67 253.802C114.04 261.361 109.692 270.36 109.692 270.36Z" fill="#BE1E2D"/>
<path d="M79.7292 298.494C81.7197 295.094 90.1428 296.572 98.5473 301.802C106.936 307.05 112.126 314.065 110.13 317.465C108.128 320.882 99.7036 319.397 91.3022 314.147C82.9121 308.926 77.7242 301.917 79.7292 298.494Z" fill="#BE1E2D"/>
<path d="M69.4822 255.239L39.7148 280.97L43.703 285.889L47.6947 290.804L77.4602 265.074C77.4602 265.074 85.3962 259.253 93.0051 260.524L84.7811 250.385L76.5553 240.246C76.4215 248.195 69.4822 255.239 69.4822 255.239Z" fill="#BE1E2D"/>
<path d="M32.2943 271.835C35.2473 269.272 42.7622 273.49 49.0607 281.264C55.3486 289.017 58.0684 297.399 55.1045 299.953C52.137 302.516 44.6439 298.288 38.3327 290.524C32.0447 282.756 29.3303 274.398 32.2943 271.835Z" fill="#BE1E2D"/>
<path d="M49.2252 216.558L13.1903 231.472L15.5028 237.422L17.8117 243.379L53.8502 228.462C53.8502 228.462 63.1474 225.478 70.0015 229.12L65.2318 216.844L60.4675 204.562C57.9432 212.076 49.2252 216.558 49.2252 216.558Z" fill="#BE1E2D"/>
<path d="M8.89283 220.41C12.4719 218.919 18.3379 225.335 21.9986 234.735C25.641 244.147 25.6954 252.957 22.1161 254.446C18.5316 255.932 12.6655 249.514 9.01035 240.112C5.35875 230.706 5.30651 221.886 8.89283 220.41Z" fill="#BE1E2D"/>
<path d="M53.9858 171.246L15.4955 176.467L16.2988 182.821L17.1167 189.186L55.6092 183.959C55.6092 183.959 65.3365 183.443 71.0906 188.726L69.428 175.614L67.7524 162.497C63.5093 169.129 53.9858 171.246 53.9858 171.246Z" fill="#BE1E2D"/>
<path d="M13.9846 164.638C17.8081 164.13 21.9568 171.851 23.2346 181.883C24.512 191.924 22.4453 200.488 18.6277 201.002C14.7861 201.532 10.646 193.808 9.37405 183.766C8.08942 173.725 10.1521 165.165 13.9846 164.638Z" fill="#BE1E2D"/>
<path d="M53.3763 130.869L16.0998 119.645L14.3647 125.795L12.631 131.964L49.8984 143.18C49.8984 143.18 59.0001 146.756 62.2117 153.987L65.7965 141.288L69.39 128.586C62.9103 132.894 53.3763 130.869 53.3763 130.869Z" fill="#BE1E2D"/>
<path d="M19.3423 108.193C23.0392 109.305 23.8244 118.102 21.0669 127.824C18.3271 137.542 13.0961 144.522 9.39594 143.408C5.68634 142.285 4.912 133.503 7.6532 123.785C10.4038 114.059 15.6349 107.08 19.3423 108.193Z" fill="#BE1E2D"/>
<path d="M80.8293 99.2466L50.8991 73.7311L46.9346 78.678L42.9791 83.6288L72.9238 109.144C72.9238 109.144 79.9175 116.131 80.0858 124.087L88.2517 113.884L96.4031 103.689C88.8091 105.004 80.8293 99.2466 80.8293 99.2466Z" fill="#BE1E2D"/>
<path d="M58.2421 64.536C61.215 67.0673 58.5696 75.4612 52.3252 83.2681C46.0808 91.0809 38.5985 95.3572 35.6255 92.8146C32.649 90.2739 35.2944 81.8969 41.5497 74.0693C47.7868 66.2735 55.2637 61.9896 58.2421 64.536Z" fill="#BE1E2D"/>
<path d="M256.529 117.218C252.014 109.686 254.263 99.8035 261.556 95.1421L261.74 95.0321C259.122 91.6766 256.359 88.469 253.442 85.4239L253.312 85.6033C248.012 92.5659 238.239 93.7616 231.502 88.2896C224.755 82.8087 223.593 72.728 228.898 65.7709L229.016 65.6308C225.457 63.4096 221.786 61.3939 218.036 59.5669L217.982 59.7425C215.315 68.1453 206.534 72.7279 198.378 69.9723C190.243 67.2207 185.798 58.16 188.468 49.7404L188.515 49.5685C184.457 48.75 180.34 48.1411 176.205 47.7374V47.9355C176.486 56.7851 169.764 64.1941 161.183 64.4877C152.623 64.7809 145.445 57.8407 145.163 48.9949L145.152 48.8024C141.082 49.4731 137.02 50.3587 132.974 51.4625L133.036 51.6288C136.24 59.8526 132.39 69.1841 124.432 72.4872C116.481 75.7937 107.43 71.8256 104.224 63.6114L104.157 63.4452C100.768 65.3935 97.4854 67.4841 94.3242 69.7147L94.4544 69.8622C100.136 76.4737 99.5517 86.6157 93.1407 92.4952C86.7153 98.3704 76.9027 97.7615 71.2122 91.1333L71.0834 90.9876C68.3458 94.2209 65.7711 97.5953 63.3661 101.068L63.5199 101.156C71.0584 105.371 73.8649 115.098 69.797 122.892C65.7258 130.677 56.2948 133.576 48.7512 129.371L48.6138 129.292C47.1046 133.283 45.7946 137.348 44.6746 141.484L44.8574 141.506C53.3291 142.799 59.2083 150.939 57.956 159.706C56.7203 168.468 48.8329 174.522 40.3445 173.243L40.133 173.213C40.046 177.48 40.1602 181.769 40.495 186.071L40.7137 186.027C49.1078 184.222 57.3172 189.798 59.0708 198.469C60.8077 207.141 55.4048 215.626 47.0107 217.427L46.8225 217.46C47.541 219.63 48.3153 221.778 49.1585 223.928C49.8784 225.781 50.6423 227.605 51.4456 229.4L51.5976 229.308C58.8971 224.647 68.4706 226.973 72.9762 234.507C77.4978 242.027 75.2416 251.915 67.9407 256.576L67.7633 256.694C70.387 260.045 73.1518 263.253 76.0613 266.289L76.1987 266.106C81.4987 259.156 91.2663 257.957 98.0119 263.423C104.748 268.904 105.916 278.985 100.603 285.942L100.493 286.095C104.055 288.303 107.729 290.319 111.476 292.146L111.523 291.983C114.195 283.567 122.977 278.985 131.119 281.746C139.28 284.505 143.713 293.566 141.042 301.976L140.986 302.148C145.054 302.972 149.161 303.577 153.305 303.975V303.783C153.017 294.941 159.734 287.524 168.311 287.234C176.884 286.945 184.071 293.872 184.342 302.725L184.353 302.92C188.425 302.24 192.478 301.354 196.526 300.25L196.461 300.093C193.258 291.875 197.119 282.53 205.068 279.218C213.03 275.913 222.071 279.896 225.278 288.111L225.339 288.267C228.737 286.319 232.027 284.234 235.181 282.007L235.052 281.86C229.371 275.239 229.957 265.093 236.37 259.221C242.784 253.355 252.608 253.955 258.293 260.576L258.413 260.725C261.155 257.491 263.739 254.131 266.146 250.639L265.983 250.557C258.449 246.355 255.63 236.616 259.706 228.836C263.785 221.042 273.214 218.136 280.752 222.346L280.898 222.433C282.404 218.434 283.716 214.359 284.823 210.236L284.653 210.21C276.172 208.917 270.299 200.774 271.54 192.016C272.787 183.264 280.669 177.187 289.159 178.474L289.376 178.509C289.457 174.233 289.347 169.953 289.021 165.647L288.804 165.695C280.399 167.495 272.179 161.914 270.444 153.248C268.703 144.574 274.1 136.091 282.492 134.291L282.675 134.26C281.964 132.087 281.195 129.941 280.357 127.794C279.636 125.937 278.856 124.114 278.059 122.309L277.911 122.41C270.619 127.071 261.043 124.745 256.529 117.218Z" fill="#BE1E2D"/>
<path d="M126.268 146.995C130.694 158.342 125.371 171.246 114.378 175.819C103.391 180.392 90.8844 174.894 86.4566 163.543C82.0289 152.192 87.3539 139.289 98.3467 134.719C109.339 130.15 121.841 135.64 126.268 146.995Z" fill="#771E21"/>
<path d="M186.42 172.096C190.848 183.45 185.52 196.362 174.53 200.931C163.538 205.5 151.032 199.995 146.61 188.648C142.179 177.3 147.502 164.393 158.5 159.824C169.489 155.258 181.99 160.745 186.42 172.096Z" fill="#651D22"/>
<path d="M139.115 224.27C143.541 235.617 138.218 248.518 127.233 253.088C116.224 257.667 103.728 252.173 99.3021 240.825C94.8726 229.465 100.196 216.564 111.199 211.994C122.19 207.424 134.688 212.913 139.115 224.27Z" fill="#651D22"/>
<path d="M177.192 89.1213C181.61 100.465 176.287 113.372 165.298 117.936C154.306 122.511 141.799 117.017 137.376 105.669C132.952 94.3221 138.274 81.4075 149.266 76.838C160.255 72.2685 172.762 77.7663 177.192 89.1213Z" fill="#651D22"/>
<path d="M122.251 68.0577C125.51 73.171 120.141 82.7732 110.247 89.5153C100.355 96.2537 89.6901 97.5823 86.424 92.469C83.1544 87.3652 88.532 77.7664 98.4171 71.0242C108.311 64.2765 118.976 62.9483 122.251 68.0577Z" fill="#651D22"/>
<path d="M276.492 187.622C281.771 190.368 281.738 201.458 276.4 212.384C271.066 223.315 262.447 229.94 257.16 227.182C251.868 224.423 251.909 213.33 257.242 202.409C262.578 191.485 271.192 184.861 276.492 187.622Z" fill="#651D22"/>
<path d="M58.3758 195.718C63.8187 193.322 72.0173 200.494 76.6746 211.749C81.3304 222.999 80.6863 234.07 75.2343 236.467C69.7951 238.877 61.6002 231.695 56.9411 220.449C52.2852 209.199 52.9185 198.123 58.3758 195.718Z" fill="#651D22"/>
<path d="M127.81 273.772C129.348 267.858 139.87 265.653 151.316 268.829C162.763 272.011 170.79 279.375 169.246 285.286C167.716 291.191 157.188 293.409 145.745 290.227C134.293 287.042 126.267 279.678 127.81 273.772Z" fill="#651D22"/>
<path d="M197.568 72.8718C199.974 67.2785 210.699 66.7423 221.538 71.6799C232.383 76.6231 239.227 85.1663 236.838 90.7652C234.45 96.3584 223.716 96.8983 212.881 91.9571C202.035 87.0139 195.186 78.4632 197.568 72.8718Z" fill="#651D22"/>
<path d="M257.046 137.09C261.472 148.441 256.134 161.348 245.142 165.923C234.153 170.491 221.651 164.993 217.224 153.651C212.796 142.285 218.118 129.38 229.112 124.814C240.102 120.245 252.615 125.739 257.046 137.09Z" fill="#651D22"/>
<path d="M230.317 228.888C234.743 240.239 229.416 253.146 218.423 257.716C207.424 262.289 194.924 256.791 190.502 245.444C186.071 234.096 191.396 221.195 202.397 216.625C213.386 212.046 225.888 217.535 230.317 228.888Z" fill="#651D22"/>
</svg>
