<?xml version="1.0" encoding="UTF-8" standalone="no"?> <svg width="64" height="64" viewBox="0 0 64 64" fill="none" xmlns="http://www.w3.org/2000/svg">
<path d="M41 50.64C40.7348 50.6254 40.4746 50.7168 40.2768 50.894C40.0789 51.0712 39.9596 51.3198 39.945 51.585C39.9304 51.8502 40.0218 52.1104 40.199 52.3082C40.3762 52.5061 40.6248 52.6254 40.89 52.64C52.59 53.28 57.51 54.91 58.28 55.7C57.28 56.82 49.52 58.81 34.1 58.98C33.43 58.98 32.75 58.98 32.1 58.98C31.45 58.98 30.7 58.98 29.98 58.98C14.58 58.81 6.85 56.82 5.82 55.7C6.59 54.91 11.51 53.28 23.21 52.64C24.83 52.55 26.53 52.48 28.28 52.45C30.06 54.71 31.28 56.16 31.28 56.17C31.3739 56.2798 31.4904 56.3679 31.6216 56.4284C31.7528 56.4888 31.8956 56.5201 32.04 56.5201C32.1844 56.5201 32.3272 56.4888 32.4584 56.4284C32.5896 56.3679 32.7061 56.2798 32.8 56.17C32.8 56.17 34.15 54.59 36.07 52.17L36.16 52.07C42 44.55 51.94 30.79 51.94 22.94C51.94 17.6516 49.8392 12.5798 46.0997 8.84029C42.3602 5.10082 37.2884 3 32 3C26.7116 3 21.6398 5.10082 17.9003 8.84029C14.1608 12.5798 12.06 17.6516 12.06 22.94C12.06 30.27 20.71 42.76 26.66 50.49C25.42 50.49 24.2 50.57 23.03 50.64C14.21 51.12 3.69 52.39 3.69 55.7C3.69 60.44 25.51 60.93 29.86 60.98C30.57 60.98 31.28 60.98 32 60.98C32.72 60.98 33.43 60.98 34.12 60.98C38.49 60.98 60.31 60.44 60.31 55.7C60.31 52.39 49.79 51.12 41 50.64Z" fill="#ABA8A3"/>
<path d="M42.49 20.48H35.35V13.36C35.35 13.0948 35.2447 12.8404 35.0571 12.6529C34.8696 12.4653 34.6152 12.36 34.35 12.36H29.65C29.3848 12.36 29.1304 12.4653 28.9429 12.6529C28.7554 12.8404 28.65 13.0948 28.65 13.36V20.48H21.51C21.2448 20.48 20.9904 20.5853 20.8029 20.7729C20.6154 20.9604 20.51 21.2148 20.51 21.48V26.2C20.51 26.4652 20.6154 26.7196 20.8029 26.9071C20.9904 27.0946 21.2448 27.2 21.51 27.2H28.65V34.32C28.65 34.5852 28.7554 34.8396 28.9429 35.0271C29.1304 35.2146 29.3848 35.32 29.65 35.32H34.35C34.6152 35.32 34.8696 35.2146 35.0571 35.0271C35.2447 34.8396 35.35 34.5852 35.35 34.32V27.2H42.49C42.7552 27.2 43.0096 27.0946 43.1971 26.9071C43.3847 26.7196 43.49 26.4652 43.49 26.2V21.48C43.49 21.2148 43.3847 20.9604 43.1971 20.7729C43.0096 20.5853 42.7552 20.48 42.49 20.48Z" fill="#EE283B"/>
</svg>
