<svg width="246" height="250" viewBox="0 0 246 250" fill="none" xmlns="http://www.w3.org/2000/svg">
<path fill-rule="evenodd" clip-rule="evenodd" d="M94.3603 0.172774C89.338 1.19994 85.6295 5.61844 85.2413 11.0373C85.0989 13.0234 85.2264 13.8383 85.964 15.6629C87.6688 19.879 90.4849 22.2192 95.0061 23.1778C95.675 23.3193 96.0237 23.6782 96.1769 24.382C98.2845 34.0659 99.293 40.6334 98.7482 41.1265C98.5634 41.2941 97.1862 41.8939 95.6881 42.4592C91.639 43.9874 84.3701 47.7329 80.2531 50.4123L76.6213 52.7765L74.0791 50.1395C72.6808 48.6896 70.8116 46.5533 69.9254 45.3926C68.5123 43.5426 68.3692 43.1935 68.7654 42.56C69.6657 41.1196 69.6577 38.5776 68.7473 36.8295C65.9163 31.3948 57.5545 33.3997 57.5545 39.5134C57.5545 42.7153 59.998 45.2079 63.3762 45.4521L65.4322 45.6005L67.2851 48.7357C68.3042 50.4602 69.6479 52.9637 70.2712 54.2993L71.4046 56.7281L66.7432 61.3744C64.1792 63.9302 61.0221 67.3916 59.7274 69.0664C58.4323 70.7415 57.1187 72.4345 56.8078 72.8289C56.2558 73.5295 56.1181 73.4823 50.9153 70.8094C47.9851 69.304 43.367 66.737 40.6522 65.1054C37.9375 63.4734 35.6702 62.1955 35.6135 62.2655C35.5572 62.3356 35.1363 63.157 34.678 64.0909C34.2197 65.0245 33.1352 66.5988 32.2679 67.5893L30.6914 69.39L32.7738 70.9498C39.0292 75.6368 49.2014 84.7202 49.2014 85.6196C49.2014 85.8783 48.6992 87.2077 48.085 88.5734C46.661 91.7402 44.3915 98.5682 43.5344 102.264L42.8705 105.127L39.0448 104.885C33.9636 104.564 33.3266 104.404 33.0702 103.384C32.7851 102.248 31.1886 100.402 29.928 99.751C29.3622 99.4589 28.1481 99.2198 27.2292 99.2198C21.9704 99.2198 19.3668 105.093 22.8958 108.996C25.4845 111.859 29.4373 111.667 32.1183 108.548C32.6525 107.927 32.865 107.946 37.0081 108.993C39.3902 109.594 41.4763 110.224 41.6441 110.392C41.8122 110.56 41.7628 112.4 41.5344 114.483C41.1433 118.052 41.3001 129.199 41.7999 133.337L41.9985 134.981L40.0614 135.774C35.8939 137.478 24.9176 140.965 22.5079 141.349C22.0191 141.427 21.1242 140.805 19.7725 139.446C17.6668 137.331 15.8182 136.46 12.4613 136.005C9.81668 135.646 6.15513 136.907 3.86421 138.964C1.14582 141.406 6.09985e-07 143.983 6.09985e-07 147.655C-0.000362567 150.093 0.161253 150.89 1.00528 152.614C5.25191 161.289 17.864 161.153 22.0144 152.388C22.5849 151.183 23.0523 149.922 23.0523 149.586C23.0527 149.251 23.3389 148.886 23.6882 148.777C25.9272 148.076 35.9585 146.743 42.5618 146.269L44.4569 146.133L45.4284 149.072C48.7166 159.02 53.8221 168.266 60.7232 176.774C62.6444 179.142 63.7071 180.751 63.5756 181.093C63.2804 181.862 59.3432 187.536 57.4103 189.978L55.7906 192.024L53.4757 191.839C51.6133 191.689 50.8804 191.796 49.7269 192.387C47.0605 193.753 45.5628 196.167 45.5776 199.076C45.5951 202.46 47.8108 205.137 51.2527 205.93C56.4904 207.138 61.2244 201.942 59.617 196.748L59.0893 195.043L63.134 191.098C65.3585 188.929 67.6287 186.861 68.1789 186.502L69.1787 185.85L70.8533 187.254C79.9259 194.856 89.4858 200.243 100.224 203.805L105.857 205.673L105.848 207.324C105.839 208.872 105.438 213.55 104.907 218.318L104.674 220.404L107.172 220.413C108.814 220.42 110.521 220.712 112.153 221.268C113.812 221.832 114.684 221.98 114.779 221.712C114.857 221.491 115.497 219.644 116.2 217.606C116.904 215.568 118.041 212.629 118.726 211.075L119.973 208.249L128.259 208.009C139.211 207.691 144.852 206.768 154.06 203.791L158.138 202.473L159.275 203.547C160.546 204.748 164.43 209.636 165.916 211.907C166.848 213.33 166.864 213.437 166.333 214.707C164.564 218.938 167.31 223.308 171.737 223.305C174.763 223.303 177.048 221.362 177.627 218.302C177.928 216.709 176.924 214.146 175.545 212.986C174.39 212.016 171.837 211.162 171.022 211.474C170.748 211.579 170.22 211.227 169.835 210.682C168.418 208.679 164.37 199.873 164.735 199.589C164.811 199.53 166.181 198.786 167.779 197.936C175.31 193.931 182.774 188.211 189.161 181.551L193.396 177.135L195.659 177.769C196.904 178.118 199.608 179.021 201.669 179.778C204.14 180.684 205.454 181.009 205.527 180.732C206.313 177.752 207.008 175.97 207.899 174.648L208.972 173.055L204.257 170.765L199.543 168.474L200.476 166.955C200.99 166.119 202.443 163.395 203.706 160.9C211.14 146.216 214.141 130.437 212.561 114.34C211.822 106.814 211.506 107.668 215.718 105.816C217.716 104.938 220.576 103.767 222.075 103.213L224.799 102.207L226.251 103.482C228.657 105.594 231.247 106.597 234.294 106.597C236.563 106.597 237.263 106.427 239.395 105.358C246.485 101.801 248.189 93.0804 242.93 87.2647C240.834 84.9469 238.459 83.8897 234.913 83.6941C232.279 83.549 231.72 83.6375 229.828 84.5007C226.087 86.2078 223.8 89.053 222.979 93.0249C222.573 94.9874 222.565 94.9962 220.598 95.6688C217.601 96.6935 210.091 98.5384 209.757 98.332C209.595 98.2318 209.246 97.3701 208.981 96.4174C207.583 91.3791 203.672 82.8846 200.074 77.074C198.99 75.3244 198.104 73.7544 198.105 73.5854C198.106 73.1765 200.5 71.7059 204.244 69.8145C206.709 68.5693 207.408 68.3541 207.875 68.6963C210.815 70.8453 214.225 70.5855 216.361 68.0497C219.975 63.7589 216.649 57.5865 211.122 58.327C208.613 58.6634 206.094 61.1771 206.094 63.3453C206.094 64.0096 205.806 64.5597 205.277 64.9051C204.228 65.5901 197.28 67.9115 195.374 68.2137L193.915 68.4452L191.449 65.5263C188.806 62.3965 183.937 57.8213 179.673 54.46C178.225 53.3182 177.042 52.1869 177.044 51.946C177.05 51.4021 182.269 40.8225 184.27 37.299L185.746 34.7001L183.436 33.6203C182.166 33.0268 180.482 31.9593 179.695 31.2485L178.263 29.9562L175.563 33.8159C173.144 37.2736 167.865 44.204 166.692 45.4601C166.319 45.8596 165.87 45.7576 164.105 44.8731C159.729 42.6816 152.266 40.0348 146.987 38.8015L144.354 38.1869L144.357 35.2324C144.36 32.448 144.829 27.2128 145.314 24.5475C145.491 23.5755 145.8 23.2406 146.942 22.7841C152.32 20.634 151.81 12.933 146.188 11.4208C140.165 9.80039 136.267 17.9665 141.17 21.933L141.923 22.5429L140.607 27.1395C139.883 29.6677 138.739 32.9284 138.065 34.3855L136.84 37.0349L133.424 36.7127C127.529 36.1569 118.227 36.7171 110.208 38.1107L108.93 38.3327L107.066 33.3101C105.142 28.125 103.315 22.5548 103.315 21.8764C103.315 21.6634 103.994 20.8147 104.824 19.99C109.272 15.5712 109.414 8.54465 105.154 3.69655C102.842 1.06569 97.8926 -0.549977 94.3603 0.172774ZM187.562 7.55086C181.831 8.79572 177.766 13.7966 177.766 19.6018C177.766 24.521 180.13 28.412 184.475 30.643C186.682 31.7757 187.237 31.9074 189.709 31.8853C193.443 31.8516 196.346 30.5711 198.82 27.8666C201.352 25.0997 202.225 22.6071 201.998 18.8032C201.852 16.3563 201.614 15.4619 200.615 13.5887C198.124 8.91944 192.735 6.42683 187.562 7.55086ZM133.583 42.6587C134.527 43.0887 135.274 44.3676 135.274 45.5552C135.274 46.6738 133.666 48.0612 132.369 48.0612C129.784 48.0612 128.532 44.8974 130.425 43.1456C131.482 42.1671 132.244 42.0495 133.583 42.6587ZM17.1946 45.3636C13.4212 46.5243 10.1207 49.7212 9.0798 53.2228C7.31221 59.1692 9.94779 65.2164 15.5698 68.1136C17.5335 69.1259 18.1392 69.2579 20.8736 69.2714C23.5324 69.2844 24.2457 69.1466 26.0162 68.2783C31.5547 65.5607 34.2581 59.8339 32.7063 54.1059C30.9031 47.4517 23.6661 43.3728 17.1946 45.3636ZM107.756 46.9575C109.094 48.44 109.355 49.6765 108.644 51.1659C107.027 54.5544 102.413 54.3501 101.236 50.8379C100.75 49.3881 101.054 48.0685 102.16 46.8399C103.658 45.1749 106.196 45.2279 107.756 46.9575ZM146.944 48.1995C147.867 49.678 147.59 51.2087 146.165 52.5059C144.389 54.1219 141.642 53.5457 140.739 51.3677C139.099 47.4125 144.676 44.5647 146.944 48.1995ZM123.574 47.9019C125.733 49.4131 125.922 52.2236 123.988 54.0751C123.096 54.9281 122.557 55.1363 121.238 55.1363C119.845 55.1363 119.439 54.9582 118.538 53.9514C117.033 52.2682 117.034 49.9011 118.54 48.3961C119.389 47.5485 119.92 47.3356 121.184 47.3356C122.053 47.3356 123.129 47.5903 123.574 47.9019ZM97.739 56.3794C101.105 58.4301 99.4114 63.657 95.3794 63.6613C94.4791 63.6624 93.8417 63.342 92.928 62.4292C89.4712 58.9758 93.5606 53.8342 97.739 56.3794ZM175.561 61.291C176.126 61.5831 176.69 62.0859 176.814 62.4092C178.024 65.5589 174.379 68.0406 172.119 65.6054C170.938 64.3318 170.993 63.1167 172.291 61.8207C173.488 60.6252 174.085 60.5283 175.561 61.291ZM115.25 62.4771C118.804 65.1061 118.693 69.9727 115.032 72.109C113.599 72.9453 111.058 72.9998 109.561 72.2266C105.466 70.1113 105.741 63.9128 110.015 61.9764C111.451 61.3258 114.027 61.5722 115.25 62.4771ZM77.6618 70.2202C79.0135 71.2821 79.0135 73.4591 77.6618 74.5211C76.4223 75.4953 75.2529 75.4743 74.1128 74.4569C72.6285 73.1318 72.537 71.8598 73.8325 70.5656C75.1232 69.2761 76.3228 69.168 77.6618 70.2202ZM147.158 70.5013C149.507 71.7038 151.004 73.2004 152.18 75.5192C153.617 78.3522 153.684 82.1368 152.346 84.8729C151.231 87.1544 149.333 89.0545 147.05 90.1771C144.569 91.3965 140.167 91.4227 137.918 90.2315C134.226 88.2755 132.042 85.1073 131.733 81.2588C131.309 75.984 134.39 71.5093 139.633 69.7859C141.266 69.2489 145.499 69.6512 147.158 70.5013ZM176.299 73.5277C177.661 74.9877 177.145 77.3809 175.305 78.1425C173.996 78.6838 172.59 78.2016 171.753 76.9248C170.001 74.2548 174.113 71.1827 176.299 73.5277ZM188.326 77.7851C189.112 78.5703 189.388 79.19 189.388 80.1714C189.388 83.1894 185.573 84.788 183.445 82.6619C181.317 80.5353 182.917 76.7245 185.938 76.7245C186.92 76.7245 187.54 76.9999 188.326 77.7851ZM64.846 83.2275C66.1542 84.5344 66.1836 85.4121 64.9673 86.8558C63.7561 88.294 62.0604 88.3811 60.826 87.068C59.6362 85.8028 59.6943 84.1081 60.9644 83.0167C62.2983 81.8702 63.556 81.9387 64.846 83.2275ZM112.838 95.8738C113.223 96.2588 113.625 97.2178 113.731 98.0051C113.889 99.1825 113.756 99.6353 112.981 100.555C111.959 101.769 110.534 102.226 109.27 101.745C106.757 100.791 106.136 97.7968 108.054 95.8811C109.027 94.9084 109.34 94.7991 110.649 94.9744C111.468 95.0843 112.453 95.4889 112.838 95.8738ZM196.03 95.2596C197.331 95.8521 198.219 97.5875 197.951 99.0141C197.337 102.282 192.92 102.91 191.386 99.9477C190.609 98.4463 190.954 96.9551 192.348 95.7828C193.522 94.7955 194.656 94.6344 196.03 95.2596ZM80.0395 98.1796C81.8456 99.8606 80.4797 102.848 77.9048 102.848C76.0856 102.848 74.8145 101.441 75.1446 99.7934C75.6556 97.2413 78.1481 96.4192 80.0395 98.1796ZM164.337 98.4064C165.259 99.5761 165.247 100.692 164.302 101.892C163.722 102.63 163.229 102.848 162.15 102.848C159.672 102.848 158.447 100.33 159.978 98.386C161.183 96.8556 163.124 96.8647 164.337 98.4064ZM182.859 98.4064C183.781 99.5761 183.769 100.692 182.824 101.892C182.244 102.63 181.751 102.848 180.672 102.848C178.194 102.848 176.969 100.33 178.5 98.386C179.705 96.8556 181.646 96.8647 182.859 98.4064ZM144.668 99.8482C149.302 103.277 147.28 110.105 141.63 110.105C135.407 110.105 133.855 101.67 139.633 99.2452C140.925 98.7028 143.544 99.0166 144.668 99.8482ZM122.625 108.51C125.192 109.82 126.282 113.913 124.684 116.239C123.277 118.287 122.034 118.994 119.839 118.994C117.654 118.994 116.394 118.282 115.027 116.276C114.076 114.881 113.935 112.415 114.718 110.902C116.209 108.021 119.636 106.984 122.625 108.51ZM95.5777 110.089C97.8879 111.496 97.9888 114.906 95.7716 116.648C94.1032 117.959 90.8658 117.309 89.988 115.487C89.2148 113.882 89.1596 113.326 89.6554 112.141C90.726 109.581 93.2868 108.693 95.5777 110.089ZM55.5933 119.683C57.2556 121.344 57.3203 123.33 55.7684 125.065C54.8361 126.108 54.4875 126.25 52.8713 126.25C50.4667 126.25 49.2083 125.108 48.9338 122.675C48.7609 121.14 48.8466 120.909 50.0269 119.729C51.086 118.671 51.5719 118.45 52.8332 118.45C54.0836 118.45 54.5812 118.672 55.5933 119.683ZM81.8086 119.016C82.7699 119.689 83.7033 121.376 83.7033 122.441C83.7033 124.531 81.619 126.432 79.327 126.432C77.5943 126.432 75.7094 124.409 75.7261 122.568C75.75 120.001 77.2213 118.488 79.7181 118.462C80.423 118.455 81.3637 118.704 81.8086 119.016ZM139.191 119.016C140.152 119.689 141.085 121.376 141.085 122.441C141.085 123.67 140.066 125.289 138.918 125.881C137.142 126.799 135.721 126.588 134.33 125.198C133.318 124.187 133.095 123.69 133.095 122.441C133.095 121.192 133.318 120.694 134.33 119.683C135.31 118.704 135.856 118.45 136.973 118.45C137.748 118.45 138.746 118.704 139.191 119.016ZM166.17 119.193C167.705 120.286 168.225 122.318 167.408 124.037C166.199 126.584 163.387 127.176 161.28 125.328C159.842 124.067 159.405 122.674 159.967 121.143C160.891 118.627 164 117.65 166.17 119.193ZM190.764 121.939C191.88 122.66 192.809 124.685 192.532 125.79C192.183 127.18 190.943 128.518 189.595 128.963C187.152 129.768 184.594 127.824 184.594 125.162C184.594 121.898 187.972 120.134 190.764 121.939ZM99.3202 126.885C102.087 128.772 102.708 132.924 100.56 135.18C97.8167 138.063 94.652 138.067 91.914 135.189C89.7709 132.937 90.3654 128.811 93.1005 126.954C94.8583 125.761 97.626 125.73 99.3202 126.885ZM80.7978 132.934C82.9424 134.441 83.0946 137.268 81.1207 138.928C79.6375 140.174 78.6119 140.378 77.0644 139.732C73.632 138.299 73.7192 133.561 77.2002 132.351C78.5966 131.866 79.4806 132.01 80.7978 132.934ZM163.842 132.237C164.14 132.237 164.862 132.714 165.446 133.298C167.504 135.354 166.615 138.923 163.815 139.846C162.233 140.368 161.016 140.048 159.815 138.795C158.499 137.423 158.278 135.648 159.234 134.121C160.006 132.888 161.956 131.77 162.815 132.069C163.081 132.161 163.543 132.237 163.842 132.237ZM122.959 135.38C125.15 136.608 127.331 139.185 127.964 141.294C129.013 144.793 128.137 149.222 125.875 151.843C121.68 156.706 113.921 156.846 109.662 152.136C107.749 150.02 106.855 147.79 106.859 145.144C106.866 140.97 108.302 138.046 111.375 135.951C113.721 134.352 114.833 134.056 118.056 134.172C120.538 134.261 121.298 134.449 122.959 135.38ZM204.476 136.03C207.014 138.566 203.342 142.651 200.719 140.209C199.685 139.247 199.384 137.955 199.948 136.897C200.988 134.947 203.005 134.561 204.476 136.03ZM142.703 136.582C147.385 139.479 145.178 146.89 139.633 146.89C133.699 146.89 131.806 139.004 137.09 136.298C138.963 135.339 140.848 135.435 142.703 136.582ZM73.8256 148.093C77.2772 150.668 77.2024 155.482 73.677 157.659C69.1253 160.469 63.5912 155.692 65.5222 150.618C66.6728 147.595 71.2793 146.194 73.8256 148.093ZM191.958 150.713C193.268 152.022 193.328 153.369 192.128 154.567C190.326 156.368 187.209 155.092 187.209 152.555C187.209 151.202 188.707 149.653 190.014 149.653C190.505 149.653 191.367 150.123 191.958 150.713ZM152.203 155.012C153.024 155.437 154.453 156.625 155.377 157.652C159.105 161.794 159.065 167.67 155.281 171.875C152.992 174.419 150.743 175.408 147.259 175.402C144.074 175.397 142.295 174.724 140.008 172.661C134.312 167.519 135.655 158.454 142.637 154.916C144.346 154.05 144.844 153.968 147.622 154.097C149.848 154.2 151.126 154.455 152.203 155.012ZM188.752 161.282C189.302 161.877 189.751 162.777 189.751 163.282C189.751 165.603 187.64 167.38 185.455 166.9C182.252 166.198 181.76 161.666 184.744 160.35C186.3 159.664 187.519 159.947 188.752 161.282ZM169.611 170.499C170.482 171.369 170.73 172.585 170.277 173.764C170.023 174.426 168.303 175.413 167.406 175.413C166.464 175.413 164.692 173.407 164.692 172.341C164.692 171.024 166.197 169.608 167.597 169.608C168.305 169.608 169.049 169.937 169.611 170.499ZM216.681 171.4C206.471 175.182 205.959 189.099 215.85 193.982C217.245 194.671 218.128 194.815 220.984 194.819C224.023 194.824 224.678 194.705 226.477 193.823C229.176 192.499 231.56 189.91 232.588 187.187C233.653 184.367 233.5 180.469 232.219 177.772C231.124 175.465 228.579 172.909 226.265 171.791C223.747 170.575 219.388 170.397 216.681 171.4ZM180.336 179.377C181.766 180.805 181.785 182.589 180.387 184.152C179.02 185.68 177.076 185.728 175.554 184.271C173.322 182.135 174.856 178.316 177.948 178.316C178.93 178.316 179.55 178.591 180.336 179.377ZM156.34 191.56C158.238 193.277 157.979 196.637 155.847 197.936C154.058 199.025 152.488 198.851 151.036 197.401C149.026 195.392 149.334 192.487 151.705 191.112C152.776 190.491 155.443 190.749 156.34 191.56ZM105.131 223.755C100.746 224.392 96.5772 227.724 94.9135 231.925C93.6303 235.165 93.7331 239.097 95.1818 242.175C99.0758 250.449 108.957 252.567 115.69 246.571C116.903 245.492 118.106 243.963 118.761 242.669C119.762 240.693 119.839 240.255 119.839 236.55C119.839 232.707 119.795 232.483 118.659 230.518C115.72 225.44 110.726 222.943 105.131 223.755Z" fill="white"/>
</svg>
