<?xml version="1.0" encoding="utf-8"?>
<!-- Generator: Adobe Illustrator 24.0.2, SVG Export Plug-In . SVG Version: 6.00 Build 0)  -->
<svg version="1.1" id="Layer_1" xmlns="http://www.w3.org/2000/svg" xmlns:xlink="http://www.w3.org/1999/xlink" x="0px" y="0px"
	 viewBox="0 0 512 512" style="enable-background:new 0 0 512 512;" xml:space="preserve">
<style type="text/css">
	.st0{fill:#6EBE58;}
	.st1{fill:#96CC77;}
</style>
<g>
	<path class="st0" d="M234.0467,74.0432l-10.9649-57.4089l-9.1927,1.7503l-9.1785,1.7527l10.974,57.4184
		c0,0,1.5908,14.5764-5.5903,23.6816l18.9462-3.6215l18.9438-3.6239C237.939,88.1759,234.0467,74.0432,234.0467,74.0432z"/>
	<path class="st0" d="M240.1568,13.3689c1.0901,5.7093-9.7768,12.5867-24.287,15.3533c-14.5031,2.769-27.1536,0.3918-28.246-5.3194
		c-1.0806-5.6974,9.7982-12.5748,24.299-15.3556C226.4234,5.2805,239.0619,7.66,240.1568,13.3689z"/>
</g>
<g>
	<path class="st0" d="M294.8276,94.9867l8.6063-57.8077l-9.2546-1.3847l-9.2451-1.3723l-8.6086,57.8197
		c0,0-3.3083,14.2727-13.1046,20.5018l19.0843,2.8332l19.0766,2.8423C293.8323,109.606,294.8276,94.9867,294.8276,94.9867z"/>
	<path class="st0" d="M320.6298,39.7318c-0.8549,5.7521-13.3893,8.6491-27.9966,6.4761
		c-14.6097-2.173-25.7574-8.5968-24.9049-14.3484c0.8668-5.7521,13.3988-8.6396,28.009-6.4666
		C310.3351,27.5778,321.4823,33.9897,320.6298,39.7318z"/>
</g>
<g>
	<path class="st0" d="M356.7891,102.7405l31.758-49.0611l-7.8604-5.0824l-7.8513-5.0819l-31.7585,49.0706
		c0,0-8.91,11.6366-20.3947,13.2374l16.1891,10.4894l16.1868,10.478C349.8236,115.6523,356.7891,102.7405,356.7891,102.7405z"/>
	<path class="st0" d="M403.1454,63.1216c-3.1683,4.8753-15.776,2.3248-28.168-5.6998
		c-12.3939-8.0246-19.8982-18.4783-16.7399-23.3564c3.1559-4.8872,15.776-2.3367,28.1675,5.6879
		C398.809,47.7754,406.3037,58.2434,403.1454,63.1216z"/>
</g>
<g>
	<path class="st0" d="M403.6533,146.4583l43.7611-38.7426l-6.2057-6.9964l-6.1982-7.0078l-43.7702,38.7449
		c0,0-11.7008,8.8134-23.2065,7.2768l12.7809,14.446l12.7814,14.4484C393.4895,157.0238,403.6533,146.4583,403.6533,146.4583z"/>
	<path class="st0" d="M458.932,120.7346c-4.3484,3.8495-15.7998-1.9902-25.6075-13.0522
		c-9.7749-11.0525-14.187-23.1403-9.8387-26.9898c4.3574-3.8495,15.8184,1.9902,25.6051,13.0522
		C458.8773,104.7949,463.2994,116.8851,458.932,120.7346z"/>
</g>
<g>
	<path class="st0" d="M413.8057,211.8042l53.4622-23.6273l-3.7952-8.5634l-3.7733-8.5425l-53.4622,23.6368
		c0,0-13.8305,4.8443-24.318-0.1071l7.7847,17.6262l7.8061,17.6448C400.9058,218.7882,413.8057,211.8042,413.8057,211.8042z"/>
	<path class="st0" d="M474.2853,204.0714c-5.298,2.3582-14.4579-6.6922-20.4257-20.1976c-5.9706-13.4959-6.4976-26.363-1.19-28.7092
		c5.3104-2.3486,14.4579,6.6922,20.4376,20.2095C479.0754,188.868,479.6071,201.7251,474.2853,204.0714z"/>
</g>
<g>
	<path class="st0" d="M438.7106,266.8972l58.4347,0.9739l0.1519-9.3427l0.1618-9.3641l-58.4466-0.952
		c0,0-14.5983-1.418-22.0384-10.3161l-0.3232,19.2904l-0.3251,19.2908C424.0699,267.8378,438.7106,266.8972,438.7106,266.8972z"/>
	<path class="st0" d="M496.8649,285.2594c-5.8183-0.0971-10.328-12.1544-10.0905-26.916
		c0.2494-14.7597,5.1581-26.6528,10.9644-26.5672c5.8183,0.109,10.328,12.1544,10.0791,26.9256
		C507.5685,273.4519,502.6713,285.357,496.8649,285.2594z"/>
</g>
<g>
	<path class="st0" d="M425.8959,329.5284l55.1269,19.4213l3.1131-8.8129l3.1041-8.8224l-55.1383-19.4117
		c0,0-13.3845-5.9682-17.6357-16.7594l-6.4119,18.1984l-6.4119,18.1984C411.7208,325.7855,425.8959,329.5284,425.8959,329.5284z"/>
	<path class="st0" d="M475.2473,365.3526c-5.4694-1.9236-5.9349-14.7811-1.0382-28.7211
		c4.8996-13.9167,13.3231-23.6459,18.8039-21.7223c5.4836,1.9236,5.9492,14.7925,1.0401,28.7211
		C489.154,357.556,480.7305,367.288,475.2473,365.3526z"/>
</g>
<g>
	<path class="st0" d="M375.2031,367.1809l40.9065,41.7495l6.6827-6.5428l6.6827-6.5518l-40.9184-41.74
		c0,0-9.385-11.2662-8.4444-22.8148l-13.7767,13.4935l-13.7762,13.4963C364.1415,357.5679,375.2031,367.1809,375.2031,367.1809z"/>
	<path class="st0" d="M403.7081,421.0963c-4.0775-4.1532,1.1781-15.8969,11.7223-26.2344
		c10.5512-10.3376,22.392-15.3533,26.4576-11.202c4.0775,4.1537-1.1872,15.8945-11.7313,26.232
		C419.6144,420.2295,407.7618,425.2477,403.7081,421.0963z"/>
</g>
<g>
	<path class="st0" d="M337.7453,418.2731l27.93,51.3412l8.2074-4.465l8.2193-4.4764L354.16,409.3317
		c0,0-5.9468-13.3869-1.8902-24.2566l-16.9351,9.2242l-16.9441,9.2141C329.7231,405.9996,337.7453,418.2731,337.7453,418.2731z"/>
	<path class="st0" d="M350.4077,477.9307c-2.7785-5.1033,5.4717-14.9663,18.4478-22.0265
		c12.9761-7.0626,25.7474-8.6396,28.5264-3.5363c2.769,5.1038-5.4932,14.9663-18.4692,22.0169
		C365.9461,481.4455,353.1766,483.034,350.4077,477.9307z"/>
</g>
<g>
	<path class="st0" d="M279.1373,437.067l9.0623,57.744l9.2451-1.4604l9.2356-1.4371l-9.0623-57.7554
		c0,0-1.1139-14.6097,6.369-23.4655l-19.0433,2.985l-19.0628,2.9851C275.7101,422.8133,279.1373,437.067,279.1373,437.067z"/>
	<path class="st0" d="M271.027,497.5014c-0.8978-5.7302,10.1976-12.2397,24.7835-14.5312
		c14.5888-2.2944,27.1536,0.496,28.0513,6.2505c0.9073,5.7302-10.1971,12.2397-24.7835,14.5312
		C284.4901,506.0439,271.9367,503.244,271.027,497.5014z"/>
</g>
<g>
	<path class="st0" d="M219.4579,417.5938l-12.9856,56.9838l9.1147,2.0754l9.1266,2.0778l12.9761-56.9862
		c0,0,4.3907-13.9923,14.6311-19.4422l-18.8039-4.2822l-18.8158-4.2936C221.5576,403.0812,219.4579,417.5938,219.4579,417.5938z"/>
	<path class="st0" d="M189.5282,470.7181c1.2871-5.6541,14.0043-7.6014,28.405-4.315c14.3941,3.2773,25.033,10.5327,23.7363,16.1987
		c-1.299,5.6664-14.0138,7.59-28.4169,4.315C198.859,483.64,188.2292,476.3846,189.5282,470.7181z"/>
</g>
<g>
	<path class="st0" d="M158.2447,409.0276l-31.4448,49.2776l7.8818,5.0276l7.8942,5.0391l31.4353-49.2867
		c0,0,8.8438-11.6794,20.3285-13.3654l-16.2534-10.3708l-16.2629-10.3804C165.1102,396.0848,158.2447,409.0276,158.2447,409.0276z"
		/>
	<path class="st0" d="M112.1473,448.9506c3.1155-4.8872,15.745-2.4219,28.2008,5.5146
		c12.4463,7.9485,20.0053,18.3622,16.8684,23.2494c-3.1136,4.9086-15.7426,2.4438-28.2013-5.5141
		C116.569,464.2634,109.0123,453.8502,112.1473,448.9506z"/>
</g>
<g>
	<path class="st0" d="M127.8257,353.8583L81.0919,388.958l5.6236,7.4834l5.6231,7.471l46.7343-35.1092
		c0,0,12.3796-7.8513,23.7244-5.3956l-11.5914-15.4223l-11.5918-15.429C138.8116,344.1263,127.8257,353.8583,127.8257,353.8583z"/>
	<path class="st0" d="M70.6567,375.0537c4.6378-3.4839,15.6027,3.2535,24.4817,15.0729
		c8.8676,11.7979,12.2949,24.1995,7.6447,27.6834c-4.6497,3.5025-15.6051-3.2464-24.4817-15.0543
		C69.4339,390.9482,66.0071,378.5566,70.6567,375.0537z"/>
</g>
<g>
	<path class="st0" d="M79.9137,310.8007l-55.5919,18.058l2.8875,8.889l2.907,8.8867l55.5824-18.0584
		c0,0,14.2513-3.4054,24.1876,2.5957l-5.9582-18.3384l-5.9682-18.3621C93.4524,305.1557,79.9137,310.8007,79.9137,310.8007z"/>
	<path class="st0" d="M18.9476,312.3135c5.526-1.7955,13.712,8.1312,18.286,22.1878c4.5502,14.0376,3.7733,26.8828-1.7527,28.6783
		c-5.5355,1.7955-13.712-8.1312-18.2741-22.1878C12.6424,326.9542,13.4211,314.1085,18.9476,312.3135z"/>
</g>
<g>
	<path class="st0" d="M72.6993,247.077L14.2546,246.98l-0.0119,9.3422l-0.0209,9.3641l58.4585,0.0876
		c0,0,14.6074,1.1877,22.1878,9.9696l0.0333-19.2904l0.0305-19.2813C87.3186,245.918,72.6993,247.077,72.6993,247.077z"/>
	<path class="st0" d="M14.276,229.6032c5.8064,0,10.4994,11.9812,10.4899,26.7523c-0.0333,14.7597-4.7592,26.7309-10.5655,26.719
		c-5.8183,0-10.5113-11.9807-10.4875-26.7523C3.7319,241.5511,8.4697,229.5818,14.276,229.6032z"/>
</g>
<g>
	<path class="st0" d="M104.037,188.4572l-56.6082-14.5864l-2.3253,9.0623l-2.3344,9.0504l56.6087,14.5769
		c0,0,13.8524,4.7782,19.02,15.1586l4.8111-18.6615l4.8115-18.6873C118.483,190.9672,104.037,188.4572,104.037,188.4572z"/>
	<path class="st0" d="M51.7653,157.0334c5.6231,1.4514,7.2025,14.2323,3.5263,28.5264
		c-3.6977,14.2965-11.2353,24.7197-16.8589,23.2708c-5.6331-1.4485-7.212-14.2204-3.5263-28.5259
		C38.5969,166.0081,46.1322,155.5849,51.7653,157.0334z"/>
</g>
<g>
	<path class="st0" d="M125.1657,133.5041L79.2321,97.3568l-5.7754,7.3525l-5.785,7.3525l45.936,36.1492
		c0,0,10.7579,9.9482,11.311,21.5395l11.9265-15.1605l11.9265-15.1586C137.3845,141.6139,125.1657,133.5041,125.1657,133.5041z"/>
	<path class="st0" d="M89.9923,83.6991c4.5621,3.5886,0.8644,15.9164-8.2736,27.5196
		c-9.1266,11.6033-20.2314,18.1009-24.7954,14.5008c-4.574-3.591-0.8763-15.9188,8.2617-27.5197
		C74.3115,86.5965,85.4283,80.099,89.9923,83.6991z"/>
</g>
<g>
	<path class="st0" d="M180.7367,106.1696l-27.909-51.3531l-8.2193,4.465l-8.2169,4.4764l27.909,51.3531
		c0,0,5.9582,13.3868,1.8688,24.2537l16.947-9.2118l16.9655-9.2142C188.7375,118.4522,180.7367,106.1696,180.7367,106.1696z"/>
	<path class="st0" d="M168.1048,46.5121c2.769,5.0914-5.5022,14.9539-18.4783,22.0146
		c-12.9642,7.0507-25.7479,8.6301-28.5145,3.5263c-2.7785-5.1152,5.5051-14.9658,18.4783-22.017
		C152.5569,42.9853,165.3287,41.3964,168.1048,46.5121z"/>
</g>
<path class="st0" d="M416.3162,229.29c-2.1968-12.7176,6.3238-24.8288,19.0528-27.0351l0.3137-0.0428
	c-1.8383-6.013-3.959-11.9169-6.3576-17.6472l-0.2823,0.1518c-11.202,6.4333-25.4985,2.5719-31.9199-8.6301
	c-6.4357-11.202-2.5648-25.4961,8.6277-31.9199l0.2495-0.1399c-3.7643-4.9848-7.7966-9.7868-12.0359-14.3727l-0.1733,0.2066
	c-8.314,9.8725-23.0642,11.1477-32.9481,2.8213c-9.872-8.3045-11.1377-23.0522-2.8213-32.9361l0.1709-0.2066
	c-5.2318-3.3935-10.6393-6.519-16.2177-9.3969l-0.0876,0.2609c-4.434,12.1307-17.8518,18.3717-29.9963,13.95
	c-12.1116-4.434-18.3598-17.8542-13.9381-29.9749l0.0976-0.2613c-6.0558-1.3847-12.2183-2.4653-18.4688-3.2416v0.247
	c0,12.9118-10.4684,23.3893-23.3683,23.3893c-12.9213,0-23.3898-10.4775-23.3898-23.3893v-0.247
	c-5.8064,0.7126-11.5247,1.6955-17.1602,2.9398l0.0971,0.2589c4.346,12.1545-1.9993,25.5413-14.1537,29.8868
	c-12.1664,4.3269-25.5414-2.0088-29.8892-14.1632l-0.0857-0.2614c-5.6022,2.8237-11.0192,5.9278-16.2748,9.2785l0.1618,0.2042
	c8.2402,9.9386,6.8679,24.6793-3.0588,32.9295c-9.9386,8.2383-24.6769,6.8655-32.939-3.0731l-0.1495-0.1828
	c-4.2722,4.5526-8.3164,9.3117-12.133,14.2846l0.2375,0.1304c11.1382,6.5095,14.902,20.8245,8.3926,31.9746
	c-6.4995,11.1472-20.8269,14.9115-31.9765,8.4021l-0.2804-0.1518c-2.4438,5.7207-4.6168,11.5914-6.4999,17.5924l0.3351,0.0547
	c12.6957,2.2915,21.1406,14.4674,18.8486,27.1631c-2.2915,12.7171-14.446,21.1501-27.1631,18.8581l-0.2804-0.0423
	c-0.1733,3.3197-0.2704,6.6708-0.2704,10.0334c0,2.9213,0.0852,5.8183,0.2161,8.7063l0.2799-0.0428
	c12.7171-2.2063,24.8168,6.3243,27.0232,19.0414c2.1968,12.7385-6.3362,24.8264-19.0652,27.0322l-0.3013,0.0548
	c1.826,6.0225,3.9471,11.905,6.3476,17.6591l0.2923-0.1733c11.202-6.4238,25.4866-2.5647,31.9199,8.6277
	c6.4357,11.2043,2.5624,25.4985-8.6396,31.9223l-0.2375,0.1519c3.7738,4.9943,7.7966,9.7748,12.045,14.3584l0.1523-0.1923
	c8.3164-9.8839,23.0761-11.1501,32.9481-2.8356c9.8839,8.3164,11.1472,23.0761,2.8237,32.9481l-0.1518,0.2066
	c5.2218,3.3959,10.6293,6.5309,16.1982,9.3974l0.1071-0.2613c4.4126-12.1212,17.8419-18.3693,29.9749-13.9471
	c12.1331,4.4217,18.3717,17.8514,13.9495,29.9844l-0.109,0.249c6.0558,1.3728,12.2183,2.4533,18.4688,3.2321v-0.2375
	c0-12.9213,10.4684-23.3774,23.3898-23.3774c12.8999,0,23.3683,10.4561,23.3683,23.3774v0.2375
	c5.8183-0.7122,11.5271-1.686,17.1602-2.9304l-0.0976-0.2685c-4.336-12.1564,2.0116-25.5432,14.1661-29.8797
	c12.154-4.3341,25.5409,2.0016,29.8773,14.1775l0.0976,0.259c5.5903-2.8332,11.0192-5.9373,16.2839-9.2998l-0.1732-0.1947
	c-8.2383-9.9362-6.8751-24.6745,3.0612-32.9152c9.9362-8.2593,24.6864-6.8774,32.9267,3.0493l0.1499,0.1947
	c4.2817-4.564,8.3283-9.3208,12.1326-14.2841l-0.2161-0.1285c-11.1591-6.5118-14.923-20.8388-8.4116-31.977
	c6.5095-11.1591,20.8274-14.9206,31.9865-8.4116l0.2804,0.1714c2.4438-5.7283,4.6164-11.6013,6.4976-17.6024l-0.3232-0.0666
	c-12.7076-2.2915-21.162-14.4436-18.87-27.1608c2.3034-12.6957,14.4674-21.1525,27.1631-18.8581l0.2823,0.0524
	c0.1833-3.3178,0.2804-6.6713,0.2804-10.0457c0-2.9184-0.0971-5.8159-0.228-8.6943l-0.2589,0.0452
	C430.6217,250.5467,418.5225,242.0047,416.3162,229.29z"/>
<path class="st1" d="M218.1826,196.3081c0,17.8423-14.4579,32.3098-32.2998,32.3098s-32.3093-14.4674-32.3093-32.3098
	c0-17.8419,14.4674-32.3093,32.3093-32.3093S218.1826,178.4662,218.1826,196.3081z"/>
<path class="st1" d="M288.5128,264.0854c0,17.8538-14.4698,32.3093-32.2997,32.3093c-17.8514,0-32.3093-14.4555-32.3093-32.3093
	c0-17.8419,14.4579-32.3093,32.3093-32.3093C274.0431,231.7762,288.5128,246.2436,288.5128,264.0854z"/>
<path class="st1" d="M194.0355,308.0527c0,17.8423-14.4674,32.3098-32.2997,32.3098c-17.8514,0-32.3093-14.4674-32.3093-32.3098
	c0-17.8419,14.4579-32.3093,32.3093-32.3093C179.5681,275.7434,194.0355,290.2108,194.0355,308.0527z"/>
<path class="st1" d="M320.8221,146.6534c0,17.8419-14.4674,32.3117-32.3093,32.3117s-32.2997-14.4698-32.2997-32.3117
	c0-17.8423,14.4579-32.3097,32.2997-32.3097S320.8221,128.8111,320.8221,146.6534z"/>
<path class="st1" d="M255.5648,87.2782c1.7741,8.7367-10.9549,18.7158-28.4502,22.264
	c-17.4739,3.5572-33.1004-0.6483-34.8721-9.3855c-1.7736-8.7486,10.953-18.7087,28.4269-22.2759
	C238.167,74.3354,253.7788,78.5291,255.5648,87.2782z"/>
<path class="st1" d="M405.8382,335.7361c5.8921,6.7042-0.1947,21.6918-13.603,33.4565
	c-13.4102,11.786-29.0462,15.8945-34.9383,9.1904c-5.894-6.7042,0.2042-21.6914,13.6125-33.456
	C384.3082,333.1404,399.9561,329.0319,405.8382,335.7361z"/>
<path class="st1" d="M96.8369,224.0343c8.91-0.1852,16.4452,14.1228,16.8256,31.9627c0.368,17.8419-6.5642,32.4611-15.4865,32.6344
	c-8.91,0.1952-16.4452-14.1204-16.8256-31.9646C80.9847,238.8364,87.905,224.229,96.8369,224.0343z"/>
<path class="st1" d="M151.2816,368.6513c5.3623-7.1269,21.2691-4.1965,35.5204,6.5423
	c14.2513,10.7364,21.4538,25.2276,16.0701,32.3426c-5.3646,7.1364-21.271,4.1965-35.5104-6.5304
	C153.1081,390.257,145.9075,375.7663,151.2816,368.6513z"/>
<path class="st1" d="M358.1495,136.1541c6.3814-6.2196,21.6609-0.9097,34.1072,11.8717
	c12.4563,12.7719,17.3649,28.1918,10.9859,34.4209c-6.4023,6.2267-21.67,0.9068-34.1257-11.8741
	C356.6581,157.7912,351.7495,142.3712,358.1495,136.1541z"/>
<path class="st1" d="M406.2066,256.4531c0,17.8395-14.4698,32.3093-32.3121,32.3093c-17.8419,0-32.3093-14.4698-32.3093-32.3093
	c0-17.8423,14.4674-32.3121,32.3093-32.3121C391.7368,224.1409,406.2066,238.6107,406.2066,256.4531z"/>
<path class="st1" d="M318.8771,365.602c0,17.8419-14.4698,32.3093-32.3116,32.3093c-17.8395,0-32.3093-14.4674-32.3093-32.3093
	c0-17.8423,14.4698-32.3098,32.3093-32.3098C304.4073,333.2922,318.8771,347.7597,318.8771,365.602z"/>
</svg>
