<svg width="470" height="625" viewBox="0 0 470 625" fill="none" xmlns="http://www.w3.org/2000/svg">
<g clip-path="url(#clip0)">
<path d="M210.572 612.5C33.2023 355.26 0.285645 328.88 0.285645 234.375C0.285645 104.922 105.208 0 234.661 0C364.114 0 469.036 104.922 469.036 234.375C469.036 328.88 436.119 355.208 258.749 612.396C256.056 616.275 252.465 619.446 248.282 621.64C244.1 623.833 239.45 624.984 234.727 624.994C230.004 625.004 225.349 623.874 221.157 621.698C216.965 619.523 213.361 616.368 210.65 612.5L210.598 612.396L210.572 612.5ZM234.661 332.031C260.561 332.031 285.4 321.742 303.714 303.428C322.028 285.114 332.317 260.275 332.317 234.375C332.317 208.475 322.028 183.636 303.714 165.322C285.4 147.008 260.561 136.719 234.661 136.719C208.761 136.719 183.921 147.008 165.607 165.322C147.293 183.636 137.004 208.475 137.004 234.375C137.004 260.275 147.293 285.114 165.607 303.428C183.921 321.742 208.761 332.031 234.661 332.031Z" fill="#FF5C00"/>
<circle cx="235.519" cy="226.648" r="188.874" fill="white"/>
<path d="M172.559 239.24C193.461 239.24 210.334 222.367 210.334 201.465C210.334 180.563 193.461 163.69 172.559 163.69C151.657 163.69 134.785 180.563 134.785 201.465C134.785 222.367 151.657 239.24 172.559 239.24ZM323.658 163.69H248.109C234.258 163.69 222.926 175.023 222.926 188.873V251.831H122.193V151.099C122.193 144.173 116.527 138.507 109.602 138.507C102.676 138.507 97.01 144.173 97.01 151.099V314.789C97.01 321.715 102.676 327.381 109.602 327.381C116.527 327.381 122.193 321.715 122.193 314.789V289.606H348.841V314.789C348.841 321.715 354.508 327.381 361.433 327.381C368.358 327.381 374.025 321.715 374.025 314.789V214.057C374.025 186.229 351.486 163.69 323.658 163.69Z" fill="#FF5C00"/>
</g>
<defs>
<clipPath id="clip0">
<rect width="468.75" height="625" fill="white" transform="translate(0.285645)"/>
</clipPath>
</defs>
</svg>
