<svg width="97" height="90" viewBox="0 0 97 90" fill="none" xmlns="http://www.w3.org/2000/svg">
<path d="M91.6111 16.875H70.0556V5.625C70.0556 2.51367 67.6474 0 64.6667 0H32.3333C29.3526 0 26.9444 2.51367 26.9444 5.625V16.875H5.38889C2.40816 16.875 0 19.3887 0 22.5V87.1875C0 88.7344 1.2125 90 2.69444 90H94.3056C95.7875 90 97 88.7344 97 87.1875V22.5C97 19.3887 94.5918 16.875 91.6111 16.875ZM26.9444 76.6406C26.9444 77.8008 26.0351 78.75 24.9236 78.75H18.1875C17.076 78.75 16.1667 77.8008 16.1667 76.6406V69.6094C16.1667 68.4492 17.076 67.5 18.1875 67.5H24.9236C26.0351 67.5 26.9444 68.4492 26.9444 69.6094V76.6406ZM26.9444 54.1406C26.9444 55.3008 26.0351 56.25 24.9236 56.25H18.1875C17.076 56.25 16.1667 55.3008 16.1667 54.1406V47.1094C16.1667 45.9492 17.076 45 18.1875 45H24.9236C26.0351 45 26.9444 45.9492 26.9444 47.1094V54.1406ZM53.8889 76.6406C53.8889 77.8008 52.9795 78.75 51.8681 78.75H45.1319C44.0205 78.75 43.1111 77.8008 43.1111 76.6406V69.6094C43.1111 68.4492 44.0205 67.5 45.1319 67.5H51.8681C52.9795 67.5 53.8889 68.4492 53.8889 69.6094V76.6406ZM53.8889 54.1406C53.8889 55.3008 52.9795 56.25 51.8681 56.25H45.1319C44.0205 56.25 43.1111 55.3008 43.1111 54.1406V47.1094C43.1111 45.9492 44.0205 45 45.1319 45H51.8681C52.9795 45 53.8889 45.9492 53.8889 47.1094V54.1406ZM56.5833 24.2578C56.5833 24.8379 56.1286 25.3125 55.5729 25.3125H51.1944V29.8828C51.1944 30.4629 50.7398 30.9375 50.184 30.9375H46.816C46.2602 30.9375 45.8056 30.4629 45.8056 29.8828V25.3125H41.4271C40.8714 25.3125 40.4167 24.8379 40.4167 24.2578V20.7422C40.4167 20.1621 40.8714 19.6875 41.4271 19.6875H45.8056V15.1172C45.8056 14.5371 46.2602 14.0625 46.816 14.0625H50.184C50.7398 14.0625 51.1944 14.5371 51.1944 15.1172V19.6875H55.5729C56.1286 19.6875 56.5833 20.1621 56.5833 20.7422V24.2578ZM80.8333 76.6406C80.8333 77.8008 79.924 78.75 78.8125 78.75H72.0764C70.9649 78.75 70.0556 77.8008 70.0556 76.6406V69.6094C70.0556 68.4492 70.9649 67.5 72.0764 67.5H78.8125C79.924 67.5 80.8333 68.4492 80.8333 69.6094V76.6406ZM80.8333 54.1406C80.8333 55.3008 79.924 56.25 78.8125 56.25H72.0764C70.9649 56.25 70.0556 55.3008 70.0556 54.1406V47.1094C70.0556 45.9492 70.9649 45 72.0764 45H78.8125C79.924 45 80.8333 45.9492 80.8333 47.1094V54.1406Z" fill="#FF5C00"/>
</svg>
