<svg width="469" height="625" viewBox="0 0 469 625" fill="none" xmlns="http://www.w3.org/2000/svg">
<g clip-path="url(#clip0)">
<path d="M210.286 612.5C32.9167 355.26 0 328.88 0 234.375C0 104.922 104.922 0 234.375 0C363.828 0 468.75 104.922 468.75 234.375C468.75 328.88 435.833 355.208 258.464 612.396C255.77 616.275 252.179 619.446 247.997 621.64C243.814 623.833 239.164 624.984 234.441 624.994C229.719 625.004 225.063 623.874 220.871 621.698C216.679 619.523 213.075 616.368 210.365 612.5L210.312 612.396L210.286 612.5ZM234.375 332.031C260.275 332.031 285.114 321.742 303.428 303.428C321.742 285.114 332.031 260.275 332.031 234.375C332.031 208.475 321.742 183.636 303.428 165.322C285.114 147.008 260.275 136.719 234.375 136.719C208.475 136.719 183.636 147.008 165.322 165.322C147.008 183.636 136.719 208.475 136.719 234.375C136.719 260.275 147.008 285.114 165.322 303.428C183.636 321.742 208.475 332.031 234.375 332.031Z" fill="#EB3A3A"/>
<circle cx="235.233" cy="226.648" r="188.874" fill="white"/>
<g clip-path="url(#clip1)">
<path d="M235.233 137.778L127.095 233.426C126.294 234.15 125.269 234.488 124.389 235.088V326.879C124.389 328.986 125.223 331.006 126.707 332.495C128.192 333.984 130.206 334.821 132.306 334.821H338.159C340.259 334.821 342.273 333.984 343.758 332.495C345.242 331.006 346.077 328.986 346.077 326.879V235.108C345.235 234.532 344.236 234.205 343.474 233.52L235.233 137.778ZM282.737 267.32C282.737 268.373 282.32 269.383 281.578 270.128C280.835 270.872 279.828 271.291 278.778 271.291H251.067V299.085C251.067 300.138 250.65 301.148 249.908 301.893C249.165 302.637 248.159 303.056 247.109 303.056H223.356C222.306 303.056 221.3 302.637 220.557 301.893C219.815 301.148 219.398 300.138 219.398 299.085V271.291H191.687C190.637 271.291 189.63 270.872 188.887 270.128C188.145 269.383 187.728 268.373 187.728 267.32V243.496C187.728 242.443 188.145 241.433 188.887 240.688C189.63 239.944 190.637 239.525 191.687 239.525H219.398V211.731C219.398 210.678 219.815 209.668 220.557 208.923C221.3 208.179 222.306 207.76 223.356 207.76H247.109C248.159 207.76 249.165 208.179 249.908 208.923C250.65 209.668 251.067 210.678 251.067 211.731V239.525H278.778C279.828 239.525 280.835 239.944 281.578 240.688C282.32 241.433 282.737 242.443 282.737 243.496V267.32ZM375.119 197.973L248.469 85.8022C244.844 82.515 240.132 80.6949 235.245 80.6949C230.358 80.6949 225.645 82.515 222.02 85.8022L95.3414 197.973C94.5676 198.67 93.9383 199.513 93.4894 200.454C93.0405 201.395 92.7808 202.415 92.7252 203.457C92.6696 204.498 92.8191 205.541 93.1653 206.525C93.5115 207.508 94.0475 208.414 94.7427 209.19L105.337 221.012C106.032 221.788 106.873 222.42 107.811 222.87C108.749 223.32 109.766 223.581 110.805 223.636C111.843 223.692 112.883 223.542 113.863 223.195C114.844 222.848 115.747 222.31 116.521 221.613L229.997 121.215C231.444 119.935 233.306 119.229 235.235 119.229C237.164 119.229 239.026 119.935 240.473 121.215L353.949 221.608C354.723 222.305 355.626 222.843 356.607 223.19C357.587 223.537 358.627 223.687 359.665 223.631C360.704 223.576 361.721 223.315 362.659 222.865C363.597 222.415 364.438 221.784 365.133 221.007L375.722 209.185C377.124 207.617 377.848 205.556 377.735 203.453C377.622 201.351 376.681 199.379 375.119 197.973Z" fill="#EB3A3A"/>
</g>
</g>
<defs>
<clipPath id="clip0">
<rect width="468.75" height="625" fill="white"/>
</clipPath>
<clipPath id="clip1">
<rect width="285.027" height="254.121" fill="white" transform="translate(92.7197 80.7006)"/>
</clipPath>
</defs>
</svg>
