<svg width="166" height="148" viewBox="0 0 166 148" fill="none" xmlns="http://www.w3.org/2000/svg">
<path d="M82.9996 33.2417L20.0204 88.9469C19.5536 89.369 18.957 89.5655 18.444 89.9153V143.375C18.444 144.601 18.9298 145.778 19.7946 146.645C20.6593 147.512 21.8322 148 23.0551 148H142.944C144.167 148 145.34 147.512 146.205 146.645C147.069 145.778 147.555 144.601 147.555 143.375V89.9269C147.065 89.5916 146.483 89.4008 146.039 89.0019L82.9996 33.2417ZM110.666 108.687C110.666 109.3 110.423 109.889 109.991 110.322C109.559 110.756 108.972 111 108.361 111H92.2218V127.187C92.2218 127.8 91.9789 128.389 91.5465 128.822C91.1141 129.256 90.5277 129.5 89.9162 129.5H76.0829C75.4714 129.5 74.885 129.256 74.4526 128.822C74.0203 128.389 73.7773 127.8 73.7773 127.187V111H57.6385C57.027 111 56.4406 110.756 56.0082 110.322C55.5758 109.889 55.3329 109.3 55.3329 108.687V94.812C55.3329 94.1987 55.5758 93.6105 56.0082 93.1768C56.4406 92.7432 57.027 92.4995 57.6385 92.4995H73.7773V76.312C73.7773 75.6987 74.0203 75.1105 74.4526 74.6768C74.885 74.2432 75.4714 73.9995 76.0829 73.9995H89.9162C90.5277 73.9995 91.1141 74.2432 91.5465 74.6768C91.9789 75.1105 92.2218 75.6987 92.2218 76.312V92.4995H108.361C108.972 92.4995 109.559 92.7432 109.991 93.1768C110.423 93.6105 110.666 94.1987 110.666 94.812V108.687ZM164.469 68.2992L90.7088 2.97108C88.5976 1.05662 85.8529 -0.00335693 83.0068 -0.00335693C80.1607 -0.00335693 77.416 1.05662 75.3048 2.97108L1.527 68.2992C1.07633 68.7051 0.709797 69.1961 0.448356 69.7441C0.186914 70.2922 0.0356823 70.8865 0.00329907 71.4932C-0.0290841 72.0998 0.0580161 72.7069 0.259624 73.2798C0.461232 73.8527 0.773397 74.3802 1.17829 74.832L7.34853 81.7175C7.75322 82.1695 8.24274 82.5372 8.78912 82.7994C9.3355 83.0616 9.92804 83.2133 10.5329 83.2458C11.1377 83.2783 11.743 83.1909 12.3142 82.9887C12.8854 82.7865 13.4112 82.4734 13.8617 82.0673L79.9505 23.5957C80.7929 22.8503 81.8776 22.4389 83.001 22.4389C84.1244 22.4389 85.2091 22.8503 86.0516 23.5957L152.14 82.0644C152.591 82.4705 153.117 82.7836 153.688 82.9858C154.259 83.188 154.864 83.2754 155.469 83.2429C156.074 83.2104 156.667 83.0587 157.213 82.7965C157.759 82.5343 158.249 82.1666 158.653 81.7146L164.821 74.8291C165.637 73.9163 166.059 72.7157 165.993 71.4912C165.927 70.2666 165.379 69.1185 164.469 68.2992V68.2992Z" fill="#7F45AD"/>
</svg>
