<?xml version="1.0" encoding="utf-8"?>
<!-- Generator: Adobe Illustrator 24.0.2, SVG Export Plug-In . SVG Version: 6.00 Build 0)  -->
<svg version="1.1" id="Layer_1" xmlns="http://www.w3.org/2000/svg" xmlns:xlink="http://www.w3.org/1999/xlink" x="0px" y="0px"
	 viewBox="0 0 512 512" style="enable-background:new 0 0 512 512;" xml:space="preserve">
<style type="text/css">
	.st0{fill:#9258A2;}
	.st1{fill:#6150A0;}
</style>
<g>
	<path class="st0" d="M234.3426,76.6328l-10.8111-56.5923l-9.0552,1.7277l-9.0537,1.7324l10.8171,56.5951
		c0,0,1.573,14.3633-5.5109,23.3437l18.6778-3.5709l18.6775-3.5694C238.1822,90.5646,234.3426,76.6328,234.3426,76.6328z"/>
	<path class="st0" d="M240.3657,16.8212c1.0749,5.6233-9.6364,12.4061-23.9401,15.1363
		c-14.2975,2.7321-26.7643,0.3876-27.8392-5.2391c-1.073-5.6249,9.652-12.4026,23.948-15.1347
		C226.8306,8.853,239.2927,11.1963,240.3657,16.8212z"/>
</g>
<g>
	<path class="st0" d="M294.2585,97.28l8.4854-56.9903l-9.1194-1.3576l-9.1179-1.3589l-8.4851,56.9933
		c0,0-3.2647,14.0759-12.9167,20.2102l18.8059,2.7991l18.8056,2.8023C293.2776,111.6962,294.2585,97.28,294.2585,97.28z"/>
	<path class="st0" d="M319.6921,42.8108c-0.8388,5.6657-13.1932,8.5258-27.5953,6.381
		c-14.3961-2.1448-25.3914-8.4788-24.5463-14.1428c0.8466-5.6655,13.201-8.5179,27.6047-6.3731
		C309.5514,30.8187,320.5403,37.1468,319.6921,42.8108z"/>
</g>
<g>
	<path class="st0" d="M355.3338,104.9216l31.3099-48.3693l-7.7462-5.0065l-7.7383-5.0078l-31.3087,48.374
		c0,0-8.7835,11.4639-20.1068,13.051l15.9595,10.3346l15.9613,10.3314C348.4778,117.6464,355.3338,104.9216,355.3338,104.9216z"/>
	<path class="st0" d="M401.0321,65.8637c-3.1147,4.8114-15.5471,2.301-27.7672-5.6124
		c-12.2185-7.9087-19.6087-18.2185-16.4939-23.0312c3.1085-4.8064,15.5487-2.2932,27.7687,5.6157
		C396.7582,50.7461,404.1484,61.0557,401.0321,65.8637z"/>
</g>
<g>
	<path class="st0" d="M401.5305,148.0177l43.1455-38.191l-6.1168-6.903l-6.1093-6.8995l-43.1458,38.191
		c0,0-11.5438,8.6882-22.875,7.1776l12.5964,14.2351l12.6042,14.2399C391.516,158.4333,401.5305,148.0177,401.5305,148.0177z"/>
	<path class="st0" d="M456.0354,122.6573c-4.2892,3.7988-15.5847-1.9588-25.2445-12.8588
		c-9.6442-10.9-13.9897-22.8139-9.7002-26.6115c4.2892-3.7989,15.5909,1.9622,25.243,12.8669
		C455.9778,106.9493,460.3312,118.8631,456.0354,122.6573z"/>
</g>
<g>
	<path class="st0" d="M411.5448,212.4341l52.698-23.2919l-3.735-8.4353l-3.7194-8.4272l-52.7039,23.2964
		c0,0-13.6353,4.7722-23.9761-0.1108l7.6804,17.3906l7.6885,17.395C398.836,219.318,411.5448,212.4341,411.5448,212.4341z"/>
	<path class="st0" d="M471.1705,204.8157c-5.236,2.3151-14.2603-6.6011-20.1428-19.9161
		c-5.8813-13.3106-6.4092-25.9897-1.1747-28.3001c5.2438-2.3198,14.2618,6.6043,20.1506,19.918
		C475.8864,189.8262,476.4128,202.5009,471.1705,204.8157z"/>
</g>
<g>
	<path class="st0" d="M436.0911,266.7486l57.6121,0.9559l0.15-9.2177l0.1563-9.2177l-57.6199-0.9528
		c0,0-14.382-1.3874-21.7221-10.1567l-0.3125,19.0088l-0.3203,19.015C421.6671,267.6701,436.0911,266.7486,436.0911,266.7486z"/>
	<path class="st0" d="M493.4189,284.8434c-5.7267-0.0967-10.1783-11.9746-9.9442-26.5301
		c0.242-14.5536,5.0861-26.2849,10.8111-26.1848c5.7326,0.0921,10.1783,11.9731,9.9363,26.5333
		C503.9818,273.2108,499.144,284.9389,493.4189,284.8434z"/>
</g>
<g>
	<path class="st0" d="M423.4665,328.4893l54.3396,19.1446l3.0662-8.6961l3.065-8.6992l-54.3552-19.1368
		c0,0-13.201-5.87-17.3891-16.5108l-6.3153,17.9339l-6.3172,17.9373C409.489,324.8013,423.4665,328.4893,423.4665,328.4893z"/>
	<path class="st0" d="M472.117,363.7997c-5.3985-1.8996-5.861-14.5771-1.0248-28.311c4.8284-13.7274,13.1293-23.323,18.5357-21.4174
		c5.4063,1.9043,5.8669,14.5821,1.0245,28.3126C485.8227,356.1112,477.5218,365.7021,472.117,363.7997z"/>
</g>
<g>
	<path class="st0" d="M373.4928,365.5992l40.3295,41.1526l6.5858-6.4542l6.5855-6.4499l-40.3357-41.1511
		c0,0-9.2597-11.0985-8.3289-22.4936l-13.5774,13.3087l-13.5777,13.3072C362.5897,356.1222,373.4928,365.5992,373.4928,365.5992z"/>
	<path class="st0" d="M401.5881,418.7486c-4.0114-4.0897,1.1654-15.6692,11.5579-25.8585
		c10.4047-10.1878,22.0765-15.1348,26.088-11.0453c4.0131,4.0926-1.1732,15.6689-11.5719,25.8613
		C417.2715,417.891,405.5918,422.8412,401.5881,418.7486z"/>
</g>
<g>
	<path class="st0" d="M336.564,415.9632l27.533,50.6143l8.0946-4.4113l8.1009-4.4019L352.7517,407.15
		c0,0-5.8669-13.2011-1.8636-23.9119l-16.7,9.0912l-16.7,9.085C328.6553,403.8653,336.564,415.9632,336.564,415.9632z"/>
	<path class="st0" d="M349.0464,474.7673c-2.7381-5.0253,5.3985-14.7521,18.1872-21.708
		c12.7949-6.9559,25.3788-8.5211,28.1157-3.4914c2.7384,5.0316-5.4126,14.7537-18.2013,21.7096
		C364.3672,478.2381,351.7786,479.7985,349.0464,474.7673z"/>
</g>
<g>
	<path class="st0" d="M278.7956,434.4911l8.9337,56.9201l9.1113-1.4309l9.1038-1.4246l-8.9334-56.9264
		c0,0-1.1028-14.4071,6.2812-23.1452l-18.7777,2.9491l-18.7915,2.9475C275.4169,420.4403,278.7956,434.4911,278.7956,434.4911z"/>
	<path class="st0" d="M270.8012,494.0714c-0.8889-5.6563,10.0503-12.078,24.4323-14.3335
		c14.3817-2.265,26.7643,0.495,27.6454,6.1575c0.8964,5.6581-10.0487,12.0764-24.4308,14.3304
		C284.0723,502.4847,271.6901,499.7291,270.8012,494.0714z"/>
</g>
<g>
	<path class="st0" d="M219.9684,415.2948l-12.8043,56.1797l8.9835,2.0401l8.9976,2.0524l12.7946-56.1859
		c0,0,4.3255-13.7837,14.4181-19.1603l-18.5419-4.2253l-18.5354-4.2253C222.0364,400.991,219.9684,415.2948,219.9684,415.2948z"/>
	<path class="st0" d="M190.4578,467.6615c1.2652-5.5798,13.8056-7.49,28.0017-4.2566
		c14.1898,3.2318,24.6728,10.3847,23.3934,15.9704c-1.2731,5.5845-13.8119,7.4903-28.0095,4.2582
		C199.6615,480.4001,189.1769,473.2491,190.4578,467.6615z"/>
</g>
<g>
	<path class="st0" d="M159.6241,406.8564l-31.0037,48.5725l7.7743,4.9564l7.7728,4.9611l30.9978-48.5754
		c0,0,8.7208-11.5218,20.0367-13.1794l-16.0255-10.225L163.145,383.132C166.3959,394.0896,159.6241,406.8564,159.6241,406.8564z"/>
	<path class="st0" d="M114.1745,446.2096c3.0803-4.8299,15.5267-2.3962,27.8032,5.4314
		c12.2683,7.8338,19.7242,18.0979,16.6358,22.9232c-3.0787,4.8331-15.5268,2.3977-27.8032-5.4373
		C118.5419,461.2992,111.0876,451.0363,114.1745,446.2096z"/>
</g>
<g>
	<path class="st0" d="M129.6374,352.4592l-46.0686,34.6091l5.5407,7.3683l5.5407,7.3729l46.0686-34.6138
		c0,0,12.2057-7.7339,23.3856-5.3159l-11.422-15.2002l-11.4232-15.2068C140.4622,342.8773,129.6374,352.4592,129.6374,352.4592z"/>
	<path class="st0" d="M73.2764,373.3656c4.5738-3.4379,15.3846,3.2009,24.1339,14.8445
		c8.7412,11.6358,12.1199,23.8669,7.5401,27.3016c-4.5816,3.446-15.3849-3.2037-24.1339-14.8473
		C72.075,389.0349,68.6964,376.8054,73.2764,373.3656z"/>
</g>
<g>
	<path class="st0" d="M82.4034,310.0147l-54.797,17.7996l2.8461,8.7697l2.8583,8.7693l54.7957-17.8061
		c0,0,14.0555-3.3615,23.8418,2.5524l-5.8747-18.0792l-5.8751-18.092C95.745,304.4631,82.4034,310.0147,82.4034,310.0147z"/>
	<path class="st0" d="M22.3077,311.5157c5.4423-1.7712,13.5151,8.0182,18.0169,21.8674
		c4.4955,13.8369,3.7272,26.5082-1.7214,28.2719c-5.4546,1.7744-13.5135-8.0226-18.0153-21.8705
		C16.0923,325.9493,16.8528,313.2857,22.3077,311.5157z"/>
</g>
<g>
	<path class="st0" d="M75.29,247.2026l-57.6121-0.0893l-0.0141,9.2115l-0.0141,9.2288l57.6262,0.0814
		c0,0,14.3958,1.1745,21.8721,9.8298l0.0279-19.0118l0.0282-19.015C89.6999,246.0654,75.29,247.2026,75.29,247.2026z"/>
	<path class="st0" d="M17.6995,229.976c5.7251,0.0031,10.3565,11.814,10.3411,26.3738
		c-0.0282,14.5556-4.6878,26.352-10.4207,26.3411c-5.7313-0.0063-10.3549-11.8168-10.333-26.3801
		C7.3073,241.7587,11.9731,229.9588,17.6995,229.976z"/>
</g>
<g>
	<path class="st0" d="M106.1876,189.417l-55.8064-14.3742l-2.2963,8.9287l-2.2979,8.9303l55.8049,14.368
		c0,0,13.6572,4.705,18.7495,14.9428l4.7441-18.4077l4.7438-18.4213C120.4275,191.8849,106.1876,189.417,106.1876,189.417z"/>
	<path class="st0" d="M54.6565,158.4489c5.5407,1.4215,7.098,14.0148,3.4711,28.1079c-3.6351,14.1009-11.0672,24.376-16.6157,22.942
		c-5.5548-1.4294-7.1059-14.0148-3.4711-28.1188C41.6697,167.2888,49.1018,157.0149,54.6565,158.4489z"/>
</g>
<g>
	<path class="st0" d="M127.0192,135.2475L81.7349,99.6123l-5.6985,7.248l-5.6969,7.2477l45.2781,35.6308
		c0,0,10.6129,9.8082,11.1533,21.2349l11.7498-14.9444l11.7639-14.9428C139.0611,143.2422,127.0192,135.2475,127.0192,135.2475z"/>
	<path class="st0" d="M92.3381,86.1486c4.4958,3.5384,0.8545,15.6864-8.1569,27.1269c-8.9914,11.4408-19.9446,17.85-24.4402,14.3009
		c-4.508-3.5384-0.8591-15.6864,8.1447-27.1316C76.883,89.0072,87.8363,82.5998,92.3381,86.1486z"/>
</g>
<g>
	<path class="st0" d="M181.793,108.305L154.282,57.68l-8.1087,4.3988l-8.1009,4.4113l27.5189,50.6233
		c0,0,5.875,13.201,1.8432,23.906l16.7065-9.0803l16.714-9.0787C189.6813,120.4064,181.793,108.305,181.793,108.305z"/>
	<path class="st0" d="M169.3403,49.4934c2.7306,5.025-5.4204,14.749-18.2154,21.7018c-12.7824,6.9481-25.3788,8.5053-28.1094,3.4738
		c-2.7381-5.0359,5.4204-14.7521,18.2154-21.7048C154.0118,46.0161,166.6019,44.454,169.3403,49.4934z"/>
</g>
<path class="st0" d="M414.0208,229.6667c-2.1698-12.5388,6.2373-24.4711,18.7774-26.6394l0.3125-0.0548
	c-1.8057-5.928-3.8975-11.7357-6.2733-17.3966l-0.278,0.1594c-11.0312,6.3388-25.1274,2.5258-31.4583-8.5133
	c-6.3435-11.0347-2.5321-25.1259,8.507-31.4618l0.242-0.1391c-3.7131-4.922-7.6823-9.6457-11.8638-14.1647l-0.1719,0.1986
	c-8.1929,9.7378-22.739,10.9858-32.4753,2.7882c-9.7303-8.1976-10.9814-22.7391-2.7882-32.48l0.17-0.1954
	c-5.1562-3.3458-10.4908-6.4371-15.9814-9.2676l-0.092,0.2562c-4.3678,11.9561-17.5967,18.1152-29.5606,13.7524
	c-11.9483-4.3643-18.1089-17.5967-13.7493-29.5528l0.0936-0.2561c-5.9608-1.3589-12.0341-2.4259-18.195-3.1927v0.2483
	c0,12.7276-10.3189,23.0481-23.0434,23.0481c-12.7326,0-23.0531-10.3205-23.0531-23.0481v-0.2483
	c-5.7248,0.7107-11.3656,1.6745-16.9141,2.8975l0.0939,0.2624c4.2817,11.9859-1.9713,25.1728-13.9556,29.4545
	c-11.9918,4.2738-25.1788-1.9776-29.4604-13.9666l-0.0861-0.2546c-5.5187,2.7866-10.8672,5.8453-16.0456,9.1567l0.1641,0.1985
	c8.1228,9.791,6.764,24.3262-3.0239,32.4518c-9.7926,8.1291-24.3246,6.7749-32.4615-3.0192l-0.1484-0.186
	c-4.2112,4.4892-8.2008,9.1833-11.9574,14.0774l0.2279,0.1312c10.9814,6.4155,14.6942,20.5301,8.2791,31.5225
	c-6.4155,10.9922-20.5336,14.7021-31.5225,8.2867l-0.278-0.1609c-2.4103,5.6487-4.5582,11.4314-6.4076,17.3483l0.3266,0.0611
	c12.5182,2.2572,20.8395,14.249,18.5854,26.7753c-2.2619,12.5247-14.2462,20.8473-26.7787,18.5885l-0.278-0.0501
	c-0.17,3.2789-0.2624,6.5796-0.2624,9.9007c0,2.877,0.0845,5.7325,0.2126,8.5771l0.2702-0.0455
	c12.5401-2.1694,24.468,6.2377,26.6378,18.7809c2.1682,12.5435-6.2389,24.4715-18.7855,26.644l-0.3059,0.0501
	c1.8072,5.9312,3.8988,11.7389,6.2667,17.3998l0.2843-0.1591c11.0394-6.3406,25.1212-2.5292,31.4665,8.5101
	c6.3372,11.0391,2.5242,25.1287-8.5133,31.4662l-0.2423,0.139c3.7193,4.922,7.6885,9.6411,11.8703,14.1632l0.1562-0.1985
	c8.1945-9.7362,22.7466-10.9843,32.4769-2.7882c9.7441,8.1976,10.989,22.7391,2.7882,32.4769l-0.1562,0.1985
	c5.1487,3.3474,10.483,6.4371,15.9739,9.2675l0.0999-0.2561c4.3534-11.9558,17.5888-18.1152,29.5465-13.7525
	c11.9621,4.3644,18.1152,17.5936,13.7555,29.5529l-0.1002,0.253c5.9687,1.3592,12.036,2.4259,18.2013,3.1946v-0.2502
	c0-12.7276,10.3205-23.045,23.0531-23.045c12.7245,0,23.0434,10.3174,23.0434,23.045v0.2502
	c5.7267-0.7123,11.3594-1.6717,16.9063-2.8962l-0.092-0.2625c-4.2738-11.9842,1.9854-25.1759,13.9615-29.4544
	c11.9859-4.2767,25.1791,1.9747,29.4545,13.9666l0.092,0.2561c5.5125-2.7913,10.869-5.8469,16.0534-9.1567l-0.1719-0.2001
	c-8.1209-9.7895-6.7699-24.3244,3.0243-32.4518c9.7942-8.1291,24.3324-6.7777,32.455,3.0196l0.1562,0.1857
	c4.21-4.4924,8.2086-9.1864,11.9561-14.0786l-0.2201-0.1299c-10.9971-6.4152-14.7023-20.5333-8.2869-31.5222
	c6.4155-10.9924,20.527-14.7055,31.5241-8.2854l0.2765,0.1594c2.4181-5.6468,4.5597-11.4345,6.4092-17.3515l-0.3203-0.0608
	c-12.5247-2.2574-20.8551-14.2462-18.5917-26.7709c2.2603-12.5263,14.2521-20.8504,26.7706-18.5933l0.278,0.0533
	c0.1782-3.282,0.2765-6.5796,0.2765-9.9003c0-2.8774-0.0921-5.7361-0.2201-8.5775l-0.2624,0.0423
	C428.1245,250.62,416.1966,242.2101,414.0208,229.6667z"/>
<path class="st1" d="M218.7078,197.1585c0,17.5888-14.2524,31.8475-31.8428,31.8475c-17.5888,0-31.8503-14.2587-31.8503-31.8475
	s14.2615-31.8503,31.8503-31.8503C204.4554,165.3081,218.7078,179.5696,218.7078,197.1585z"/>
<path class="st1" d="M288.0353,263.9774c0,17.5904-14.2599,31.8507-31.8425,31.8507c-17.5967,0-31.8522-14.2603-31.8522-31.8507
	c0-17.5888,14.2556-31.8488,31.8522-31.8488C273.7753,232.1286,288.0353,246.3885,288.0353,263.9774z"/>
<path class="st1" d="M194.9036,307.3107c0,17.5904-14.2618,31.8504-31.8444,31.8504c-17.5967,0-31.8504-14.2599-31.8504-31.8504
	c0-17.5842,14.2537-31.846,31.8504-31.846C180.6418,275.4647,194.9036,289.7265,194.9036,307.3107z"/>
<path class="st1" d="M319.8859,148.2096c0,17.5888-14.2618,31.8475-31.8506,31.8475c-17.5904,0-31.8425-14.2587-31.8425-31.8475
	s14.2521-31.8472,31.8425-31.8472C305.6241,116.3624,319.8859,130.6208,319.8859,148.2096z"/>
<path class="st1" d="M255.5521,89.6776c1.7496,8.6163-10.797,18.4464-28.0389,21.9485
	c-17.2328,3.5068-32.6315-0.6375-34.3812-9.2538c-1.7496-8.6209,10.797-18.4464,28.0299-21.9562
	C238.4038,76.9124,253.795,81.0594,255.5521,89.6776z"/>
<path class="st1" d="M403.6922,334.6033c5.8046,6.6074-0.1982,21.3736-13.4133,32.9797
	c-13.2151,11.6123-28.6357,15.6708-34.4388,9.063c-5.8049-6.609,0.206-21.3814,13.4133-32.9891
	C382.4685,332.0493,397.8892,327.9955,403.6922,334.6033z"/>
<path class="st1" d="M99.0817,224.4916c8.7913-0.1843,16.2175,13.9241,16.586,31.5054
	c0.3638,17.5873-6.4637,31.9972-15.2565,32.1785c-8.79,0.1841-16.2159-13.9227-16.5863-31.51
	C83.4548,239.0813,90.2841,224.6727,99.0817,224.4916z"/>
<path class="st1" d="M152.7528,367.0472c5.2921-7.0247,20.9691-4.1332,35.0168,6.4499
	c14.0461,10.5876,21.1457,24.8663,15.8455,31.8864c-5.2842,7.0276-20.9675,4.1396-35.0152-6.4468
	C154.5522,388.3492,147.4541,374.0673,152.7528,367.0472z"/>
<path class="st1" d="M356.6789,137.8609c6.2949-6.1343,21.3517-0.8967,33.6219,11.7
	c12.2824,12.5964,17.1201,27.7891,10.8249,33.9234c-6.3012,6.1418-21.3596,0.9042-33.636-11.6969
	C355.2136,159.1878,350.3774,143.9952,356.6789,137.8609z"/>
<path class="st1" d="M404.0485,256.4497c0,17.5889-14.2602,31.8507-31.8506,31.8507c-17.5888,0-31.8488-14.2618-31.8488-31.8507
	c0-17.5904,14.2599-31.8472,31.8488-31.8472C389.7883,224.6025,404.0485,238.8593,404.0485,256.4497z"/>
<path class="st1" d="M317.9644,364.0418c0,17.5857-14.2599,31.846-31.8425,31.846c-17.5967,0-31.8585-14.2603-31.8585-31.846
	c0-17.5936,14.2618-31.8503,31.8585-31.8503C303.7045,332.1914,317.9644,346.4482,317.9644,364.0418z"/>
</svg>
